<svg width="243" height="25" viewBox="0 0 243 25" fill="none" xmlns="http://www.w3.org/2000/svg">
<path d="M60.0398 17.4621V17.5842H64.6068V19.7822H69.1739V21.9802H63.6922V19.7822H59.1251V17.7063H55.4727V19.6601H50.9056V21.8581H45.4239V19.6601H49.991V17.4621H54.558V15.3861H49.991V13.1881H46.462V15.3861H41.8949V17.5842H37.3278V19.7822H32.7607V21.9802H28.1937V24.1782H22.7119V21.9802H18.2683V19.7822H13.7012V17.5842H9.13415V15.3861H4.56708V13.1881H0V10.9901H4.56708V8.79208H9.13415V6.59406H13.7012V4.39605H18.2683V2.19802H22.7119V5.72205e-06H28.1937V2.19802H32.7607V4.39605H37.3278V6.59406H41.8949V8.79208H46.462V10.9901H49.991V8.79208H54.558V6.71618H60.0398V8.9142H64.6068V11.1122H69.1739V13.3102H64.6068V15.264H60.0398V17.4621ZM40.9802 10.9901V8.79208H36.4132V6.59406H31.8461V4.39605H27.279V2.19802H23.75V4.39605H19.183V6.59406H14.6159V8.79208H10.0488V10.9901H5.48173V13.1881H10.0488V15.3861H14.6159V17.5842H19.183V19.7822H23.75V21.9802H27.279V19.7822H31.8461V17.5842H36.4132V15.3861H40.9802V13.1881H45.4239V10.9901H40.9802ZM63.6922 13.066V11.1122H59.1251V8.9142H55.4727V10.9901H50.9056V13.1881H55.4727V15.264H59.1251V13.066H63.6922Z" fill="white"/>
<path d="M58.4103 13.3103H56.1626V11.1123H58.4103V13.3103Z" fill="white"/>
<path d="M60.0398 24.6667H54.5581V22.4687H60.0398V24.6667Z" fill="white"/>
<path d="M44.1167 24.6667H38.635V22.4687H44.1167V24.6667Z" fill="white"/>
<path d="M12.7644 24.6667H7.28271V22.4687H12.7644V24.6667Z" fill="white"/>
<path d="M60.0398 2.198H54.5581V-2.16961e-05H60.0398V2.198Z" fill="white"/>
<path d="M44.1167 2.198H38.635V-2.16961e-05H44.1167V2.198Z" fill="white"/>
<path d="M12.7644 2.198H7.28271V-2.16961e-05H12.7644V2.198Z" fill="white"/>
<path d="M31.8966 15.5083H27.3049V17.7063H23.7253V15.5083H19.1323V13.3103H14.5652V11.1122H19.1323V9.03633H24.614V11.2344H20.0469V13.3103H24.614V15.5083H26.4149V13.3103H30.8585V11.1122H26.4149V8.91422H31.8966V11.1122H36.3403V13.3103H31.8966V15.5083Z" fill="white"/>
<path d="M27.2432 8.7312H23.6636V6.53318H27.2432V8.7312Z" fill="white"/>
<path d="M123.793 17.4621V17.5842H128.36V19.7822H132.928V21.9802H127.446V19.7822H122.879V17.7063H119.226V19.6601H114.659V21.8581H109.178V19.6601H113.745V17.4621H118.312V15.3861H113.745V13.1881H110.216V15.3861H105.649V17.5842H101.081V19.7822H96.5144V21.9802H91.9473V24.1782H86.4656V21.9802H82.022V19.7822H77.4549V17.5842H72.8878V15.3861H68.3207V13.1881H63.7537V10.9901H68.3207V8.79208H72.8878V6.59406H77.4549V4.39605H82.022V2.19802H86.4656V5.72205e-06H91.9473V2.19802H96.5144V4.39605H101.081V6.59406H105.649V8.79208H110.216V10.9901H113.745V8.79208H118.312V6.71618H123.793V8.9142H128.36V11.1122H132.928V13.3102H128.36V15.264H123.793V17.4621ZM104.734 10.9901V8.79208H100.167V6.59406H95.5998V4.39605H91.0327V2.19802H87.5037V4.39605H82.9366V6.59406H78.3695V8.79208H73.8025V10.9901H69.2354V13.1881H73.8025V15.3861H78.3695V17.5842H82.9366V19.7822H87.5037V21.9802H91.0327V19.7822H95.5998V17.5842H100.167V15.3861H104.734V13.1881H109.178V10.9901H104.734ZM127.446 13.066V11.1122H122.879V8.9142H119.226V10.9901H114.659V13.1881H119.226V15.264H122.879V13.066H127.446Z" fill="white"/>
<path d="M122.164 13.3103H119.916V11.1123H122.164V13.3103Z" fill="white"/>
<path d="M123.793 24.6667H118.312V22.4687H123.793V24.6667Z" fill="white"/>
<path d="M107.87 24.6667H102.389V22.4687H107.87V24.6667Z" fill="white"/>
<path d="M76.5181 24.6667H71.0364V22.4687H76.5181V24.6667Z" fill="white"/>
<path d="M123.793 2.198H118.312V-2.16961e-05H123.793V2.198Z" fill="white"/>
<path d="M107.87 2.198H102.389V-2.16961e-05H107.87V2.198Z" fill="white"/>
<path d="M76.5181 2.198H71.0364V-2.16961e-05H76.5181V2.198Z" fill="white"/>
<path d="M95.6503 15.5083H91.0585V17.7063H87.4789V15.5083H82.8859V13.3103H78.3188V11.1122H82.8859V9.03633H88.3676V11.2344H83.8006V13.3103H88.3676V15.5083H90.1686V13.3103H94.6122V11.1122H90.1686V8.91422H95.6503V11.1122H100.094V13.3103H95.6503V15.5083Z" fill="white"/>
<path d="M90.9968 8.7312H87.4172V6.53318H90.9968V8.7312Z" fill="white"/>
<path d="M187.547 17.4621V17.5842H192.114V19.7822H196.681V21.9802H191.2V19.7822H186.632V17.7063H182.98V19.6601H178.413V21.8581H172.931V19.6601H177.498V17.4621H182.065V15.3861H177.498V13.1881H173.969V15.3861H169.402V17.5842H164.835V19.7822H160.268V21.9802H155.701V24.1782H150.219V21.9802H145.776V19.7822H141.209V17.5842H136.641V15.3861H132.074V13.1881H127.507V10.9901H132.074V8.79208H136.641V6.59406H141.209V4.39605H145.776V2.19802H150.219V5.72205e-06H155.701V2.19802H160.268V4.39605H164.835V6.59406H169.402V8.79208H173.969V10.9901H177.498V8.79208H182.065V6.71618H187.547V8.9142H192.114V11.1122H196.681V13.3102H192.114V15.264H187.547V17.4621ZM168.488 10.9901V8.79208H163.92V6.59406H159.353V4.39605H154.786V2.19802H151.257V4.39605H146.69V6.59406H142.123V8.79208H137.556V10.9901H132.989V13.1881H137.556V15.3861H142.123V17.5842H146.69V19.7822H151.257V21.9802H154.786V19.7822H159.353V17.5842H163.92V15.3861H168.488V13.1881H172.931V10.9901H168.488ZM191.2 13.066V11.1122H186.632V8.9142H182.98V10.9901H178.413V13.1881H182.98V15.264H186.632V13.066H191.2Z" fill="white"/>
<path d="M185.918 13.3103H183.67V11.1123H185.918V13.3103Z" fill="white"/>
<path d="M187.547 24.6667H182.065V22.4687H187.547V24.6667Z" fill="white"/>
<path d="M171.624 24.6667H166.142V22.4687H171.624V24.6667Z" fill="white"/>
<path d="M140.272 24.6667H134.79V22.4687H140.272V24.6667Z" fill="white"/>
<path d="M187.547 2.198H182.065V-2.16961e-05H187.547V2.198Z" fill="white"/>
<path d="M171.624 2.198H166.142V-2.16961e-05H171.624V2.198Z" fill="white"/>
<path d="M140.272 2.198H134.79V-2.16961e-05H140.272V2.198Z" fill="white"/>
<path d="M159.404 15.5083H154.812V17.7063H151.233V15.5083H146.64V13.3103H142.073V11.1122H146.64V9.03633H152.121V11.2344H147.554V13.3103H152.121V15.5083H153.922V13.3103H158.366V11.1122H153.922V8.91422H159.404V11.1122H163.848V13.3103H159.404V15.5083Z" fill="white"/>
<path d="M154.75 8.7312H151.171V6.53318H154.75V8.7312Z" fill="white"/>
<path d="M182.381 17.4621V17.5842H177.814V19.7822H173.246V21.9802H178.728V19.7822H183.295V17.7063H186.948V19.6601H191.515V21.8581H196.997V19.6601H192.429V17.4621H187.862V15.3861H192.429V13.1881H195.958V15.3861H200.526V17.5842H205.093V19.7822H209.66V21.9802H214.227V24.1782H219.708V21.9802H224.152V19.7822H228.719V17.5842H233.286V15.3861H237.853V13.1881H242.42V10.9901H237.853V8.79208H233.286V6.59406H228.719V4.39605H224.152V2.19802H219.708V5.72205e-06H214.227V2.19802H209.66V4.39605H205.093V6.59406H200.526V8.79208H195.958V10.9901H192.429V8.79208H187.862V6.71618H182.381V8.9142H177.814V11.1122H173.246V13.3102H177.814V15.264H182.381V17.4621ZM201.44 10.9901V8.79208H206.007V6.59406H210.574V4.39605H215.141V2.19802H218.67V4.39605H223.237V6.59406H227.805V8.79208H232.372V10.9901H236.939V13.1881H232.372V15.3861H227.805V17.5842H223.237V19.7822H218.67V21.9802H215.141V19.7822H210.574V17.5842H206.007V15.3861H201.44V13.1881H196.997V10.9901H201.44ZM178.728 13.066V11.1122H183.295V8.9142H186.948V10.9901H191.515V13.1881H186.948V15.264H183.295V13.066H178.728Z" fill="white"/>
<path d="M184.01 13.3103H186.258V11.1123H184.01V13.3103Z" fill="white"/>
<path d="M182.381 24.6667H187.862V22.4687H182.381V24.6667Z" fill="white"/>
<path d="M198.304 24.6667H203.785V22.4687H198.304V24.6667Z" fill="white"/>
<path d="M229.656 24.6667H235.138V22.4687H229.656V24.6667Z" fill="white"/>
<path d="M182.381 2.198H187.862V-2.16961e-05H182.381V2.198Z" fill="white"/>
<path d="M198.304 2.198H203.785V-2.16961e-05H198.304V2.198Z" fill="white"/>
<path d="M229.656 2.198H235.138V-2.16961e-05H229.656V2.198Z" fill="white"/>
<path d="M210.524 15.5083H215.116V17.7063H218.695V15.5083H223.288V13.3103H227.855V11.1122H223.288V9.03633H217.806V11.2344H222.373V13.3103H217.806V15.5083H216.006V13.3103H211.562V11.1122H216.006V8.91422H210.524V11.1122H206.08V13.3103H210.524V15.5083Z" fill="white"/>
<path d="M215.177 8.7312H218.757V6.53318H215.177V8.7312Z" fill="white"/>
</svg>
