<svg width="928" height="152" viewBox="0 0 928 152" fill="none" xmlns="http://www.w3.org/2000/svg">
<path d="M194 96.5188V51.2283H222.009V55.661H199.268V71.4645H220.725V75.8972H199.268V96.5188H194Z" fill="white"/>
<path d="M250.116 96.5188L263.436 66.3251H266.434L279.753 96.5188H276.113L272.772 88.8098H257.055L253.757 96.5188H250.116ZM264.892 70.4366L258.339 85.8546H271.53L264.978 70.4366H264.892Z" fill="white"/>
<path d="M301.361 96.5188V66.3251H313.438C316.55 66.3251 318.949 67.0246 320.633 68.4237C322.346 69.7942 323.203 71.7214 323.203 74.2055C323.203 75.8615 322.775 77.2748 321.918 78.4454C321.062 79.616 319.877 80.4726 318.363 81.0151C320.105 81.4719 321.461 82.3142 322.432 83.5419C323.431 84.7697 323.931 86.3258 323.931 88.2102C323.931 90.8941 323.06 92.9498 321.319 94.3774C319.577 95.805 317.121 96.5188 313.952 96.5188H301.361ZM304.787 79.8159H312.924C317.464 79.8159 319.734 78.0457 319.734 74.5052C319.734 70.9363 317.464 69.1518 312.924 69.1518H304.787V79.8159ZM304.787 93.6922H313.609C318.178 93.6922 320.462 91.8506 320.462 88.1674C320.462 84.4841 318.178 82.6426 313.609 82.6426H304.787V93.6922Z" fill="white"/>
<path d="M347.434 96.5188V66.3251H350.946V96.5188H347.434Z" fill="white"/>
<path d="M372.611 96.5188L385.93 66.3251H388.928L402.248 96.5188H398.608L395.267 88.8098H379.549L376.251 96.5188H372.611ZM387.387 70.4366L380.834 85.8546H394.025L387.472 70.4366H387.387Z" fill="white"/>
<path d="M423.855 96.5188V66.3251H426.596L444.798 90.6085V66.3251H448.053V96.5188H445.398L427.153 72.1497V96.5188H423.855Z" fill="white"/>
<path d="M485.366 96.9043C482.568 96.9043 480.127 96.2761 478.043 95.0198C475.987 93.735 474.388 91.9362 473.246 89.6235C472.132 87.3108 471.576 84.5698 471.576 81.4005C471.576 78.2313 472.132 75.4903 473.246 73.1776C474.359 70.8649 475.944 69.0804 478 67.8241C480.084 66.5678 482.54 65.9397 485.366 65.9397C488.221 65.9397 490.677 66.5678 492.733 67.8241C494.817 69.0804 496.416 70.8649 497.529 73.1776C498.671 75.4617 499.242 78.1884 499.242 81.3577C499.242 84.527 498.671 87.2822 497.529 89.6235C496.387 91.9362 494.774 93.735 492.69 95.0198C490.634 96.2761 488.193 96.9043 485.366 96.9043ZM485.366 93.7778C488.593 93.7778 491.091 92.6928 492.861 90.5229C494.631 88.3529 495.516 85.3122 495.516 81.4005C495.516 77.4889 494.631 74.4624 492.861 72.321C491.091 70.1511 488.593 69.0661 485.366 69.0661C482.197 69.0661 479.727 70.1511 477.957 72.321C476.187 74.4624 475.302 77.4889 475.302 81.4005C475.302 85.2836 476.187 88.3244 477.957 90.5229C479.727 92.6928 482.197 93.7778 485.366 93.7778Z" fill="white"/>
<path d="M552.646 96.5188V51.2283H570.762C575.431 51.2283 579.028 52.2776 581.555 54.3761C584.125 56.4319 585.41 59.3227 585.41 63.0488C585.41 65.5328 584.767 67.6528 583.482 69.4087C582.197 71.1647 580.42 72.4495 578.15 73.2632C580.763 73.9485 582.797 75.2119 584.253 77.0535C585.752 78.8951 586.502 81.2292 586.502 84.0559C586.502 88.0817 585.195 91.1653 582.583 93.3067C579.97 95.4481 576.287 96.5188 571.533 96.5188H552.646ZM557.786 71.4645H569.991C576.801 71.4645 580.206 68.8091 580.206 63.4985C580.206 58.145 576.801 55.4682 569.991 55.4682H557.786V71.4645ZM557.786 92.2788H571.019C577.872 92.2788 581.298 89.5164 581.298 83.9916C581.298 78.4668 577.872 75.7044 571.019 75.7044H557.786V92.2788Z" fill="white"/>
<path d="M616.981 96.5188L630.301 66.3251H633.298L646.618 96.5188H642.978L639.637 88.8098H623.919L620.621 96.5188H616.981ZM631.757 70.4366L625.204 85.8546H638.395L631.842 70.4366H631.757Z" fill="white"/>
<path d="M680.786 96.9043C677.817 96.9043 675.275 96.2761 673.163 95.0198C671.05 93.7635 669.422 91.979 668.28 89.6663C667.167 87.3536 666.61 84.5984 666.61 81.4005C666.61 78.2313 667.167 75.4903 668.28 73.1776C669.422 70.8649 671.05 69.0804 673.163 67.8241C675.275 66.5678 677.817 65.9397 680.786 65.9397C682.87 65.9397 684.783 66.268 686.525 66.9247C688.295 67.5814 689.794 68.5379 691.022 69.7942L689.651 72.6636C688.338 71.4359 686.968 70.5508 685.54 70.0083C684.141 69.4373 682.585 69.1518 680.872 69.1518C677.474 69.1518 674.876 70.2225 673.077 72.3639C671.278 74.5052 670.379 77.5175 670.379 81.4005C670.379 85.3122 671.278 88.3387 673.077 90.4801C674.876 92.6215 677.474 93.6922 680.872 93.6922C682.585 93.6922 684.141 93.4209 685.54 92.8784C686.968 92.3074 688.338 91.408 689.651 90.1803L691.022 93.0497C689.794 94.2775 688.295 95.234 686.525 95.9192C684.783 96.5759 682.87 96.9043 680.786 96.9043Z" fill="white"/>
<path d="M725.814 96.9043C722.844 96.9043 720.303 96.2761 718.19 95.0198C716.078 93.7635 714.45 91.979 713.308 89.6663C712.195 87.3536 711.638 84.5984 711.638 81.4005C711.638 78.2313 712.195 75.4903 713.308 73.1776C714.45 70.8649 716.078 69.0804 718.19 67.8241C720.303 66.5678 722.844 65.9397 725.814 65.9397C727.898 65.9397 729.811 66.268 731.553 66.9247C733.323 67.5814 734.822 68.5379 736.05 69.7942L734.679 72.6636C733.366 71.4359 731.995 70.5508 730.568 70.0083C729.169 69.4373 727.613 69.1518 725.9 69.1518C722.502 69.1518 719.904 70.2225 718.105 72.3639C716.306 74.5052 715.407 77.5175 715.407 81.4005C715.407 85.3122 716.306 88.3387 718.105 90.4801C719.904 92.6215 722.502 93.6922 725.9 93.6922C727.613 93.6922 729.169 93.4209 730.568 92.8784C731.995 92.3074 733.366 91.408 734.679 90.1803L736.05 93.0497C734.822 94.2775 733.323 95.234 731.553 95.9192C729.811 96.5759 727.898 96.9043 725.814 96.9043Z" fill="white"/>
<path d="M758.699 96.5188V66.3251H762.211V79.6874H780.327V66.3251H783.839V96.5188H780.327V82.7282H762.211V96.5188H758.699Z" fill="white"/>
<path d="M808.411 96.5188V66.3251H811.923V96.5188H808.411Z" fill="white"/>
<path d="M836.501 96.5188V66.3251H855.559V69.2802H839.927V79.7303H854.66V82.6854H839.927V93.5637H855.559V96.5188H836.501Z" fill="white"/>
<path d="M878.601 96.5188V66.3251H890.55C893.805 66.3251 896.289 67.0817 898.002 68.595C899.743 70.1082 900.614 72.2639 900.614 75.062C900.614 77.2891 900 79.1164 898.773 80.544C897.574 81.9716 895.86 82.8995 893.633 83.3278C894.947 83.7846 896.075 84.8982 897.017 86.6684L902.327 96.5188H898.473L893.248 86.8397C892.591 85.6405 891.835 84.8268 890.978 84.3985C890.121 83.9702 888.994 83.7561 887.595 83.7561H882.113V96.5188H878.601ZM882.113 80.9723H890.036C894.775 80.9723 897.145 79.0022 897.145 75.062C897.145 71.1789 894.775 69.2374 890.036 69.2374H882.113V80.9723Z" fill="white"/>
<path d="M924.381 96.5188V66.3251H927.893V96.5188H924.381Z" fill="white"/>
<path d="M308.04 132.584H312.607V134.782H317.174V136.98H311.692V134.782H307.125V132.706H303.473V134.66H298.906V136.858H293.424V134.66H297.991V132.462H302.558V130.386H297.991V128.188H294.462V130.386H289.895V132.584H285.328V134.782H280.761V136.98H276.194V139.178H270.712V136.98H266.268V134.782H261.701V132.584H257.134V130.386H252.567V128.188H248V125.99H252.567V123.792H257.134V121.594H261.701V119.396H266.268V117.198H270.712V115H276.194V117.198H280.761V119.396H285.328V121.594H289.895V123.792H294.462V125.99H297.991V123.792H302.558V121.716H308.04V123.914H312.607V126.112H317.174V128.31H312.607V130.264H308.04V132.584ZM288.98 125.99V123.792H284.413V121.594H279.846V119.396H275.279V117.198H271.75V119.396H267.183V121.594H262.616V123.792H258.049V125.99H253.482V128.188H258.049V130.386H262.616V132.584H267.183V134.782H271.75V136.98H275.279V134.782H279.846V132.584H284.413V130.386H288.98V128.188H293.424V125.99H288.98ZM311.692 128.066V126.112H307.125V123.914H303.473V125.99H298.906V128.188H303.473V130.264H307.125V128.066H311.692Z" fill="white"/>
<path d="M306.41 128.31H304.163V126.112H306.41V128.31Z" fill="white"/>
<path d="M308.04 139.667H302.558V137.469H308.04V139.667Z" fill="white"/>
<path d="M292.117 139.667H286.635V137.469H292.117V139.667Z" fill="white"/>
<path d="M260.764 139.667H255.283V137.469H260.764V139.667Z" fill="white"/>
<path d="M308.04 117.198H302.558V115H308.04V117.198Z" fill="white"/>
<path d="M292.117 117.198H286.635V115H292.117V117.198Z" fill="white"/>
<path d="M260.764 117.198H255.283V115H260.764V117.198Z" fill="white"/>
<path d="M279.897 130.508H275.305V132.706H271.725V130.508H267.132V128.31H262.565V126.112H267.132V124.036H272.614V126.234H268.047V128.31H272.614V130.508H274.415V128.31H278.859V126.112H274.415V123.914H279.897V126.112H284.34V128.31H279.897V130.508Z" fill="white"/>
<path d="M275.243 123.731H271.664V121.533H275.243V123.731Z" fill="white"/>
<path d="M371.851 132.584H376.418V134.782H380.986V136.98H375.504V134.782H370.937V132.706H367.284V134.66H362.717V136.858H357.236V134.66H361.803V132.462H366.37V130.386H361.803V128.188H358.274V130.386H353.707V132.584H349.139V134.782H344.572V136.98H340.005V139.178H334.524V136.98H330.08V134.782H325.513V132.584H320.946V130.386H316.379V128.188H311.812V125.99H316.379V123.792H320.946V121.594H325.513V119.396H330.08V117.198H334.524V115H340.005V117.198H344.572V119.396H349.139V121.594H353.707V123.792H358.274V125.99H361.803V123.792H366.37V121.716H371.851V123.914H376.418V126.112H380.986V128.31H376.418V130.264H371.851V132.584ZM352.792 125.99V123.792H348.225V121.594H343.658V119.396H339.091V117.198H335.562V119.396H330.995V121.594H326.427V123.792H321.86V125.99H317.293V128.188H321.86V130.386H326.427V132.584H330.995V134.782H335.562V136.98H339.091V134.782H343.658V132.584H348.225V130.386H352.792V128.188H357.235V125.99H352.792ZM375.504 128.066V126.112H370.937V123.914H367.284V125.99H362.717V128.188H367.284V130.264H370.937V128.066H375.504Z" fill="white"/>
<path d="M370.222 128.31H367.974V126.112H370.222V128.31Z" fill="white"/>
<path d="M371.851 139.667H366.37V137.469H371.851V139.667Z" fill="white"/>
<path d="M355.928 139.667H350.447V137.469H355.928V139.667Z" fill="white"/>
<path d="M324.576 139.667H319.094V137.469H324.576V139.667Z" fill="white"/>
<path d="M371.851 117.198H366.37V115H371.851V117.198Z" fill="white"/>
<path d="M355.928 117.198H350.447V115H355.928V117.198Z" fill="white"/>
<path d="M324.576 117.198H319.094V115H324.576V117.198Z" fill="white"/>
<path d="M343.708 130.508H339.117V132.706H335.537V130.508H330.944V128.31H326.377V126.112H330.944V124.036H336.426V126.234H331.859V128.31H336.426V130.508H338.227V128.31H342.67V126.112H338.227V123.914H343.708V126.112H348.152V128.31H343.708V130.508Z" fill="white"/>
<path d="M339.055 123.731H335.475V121.533H339.055V123.731Z" fill="white"/>
<path d="M435.663 132.584H440.23V134.782H444.797V136.98H439.315V134.782H434.748V132.706H431.096V134.66H426.529V136.858H421.047V134.66H425.614V132.462H430.181V130.386H425.614V128.188H422.085V130.386H417.518V132.584H412.951V134.782H408.384V136.98H403.817V139.178H398.335V136.98H393.892V134.782H389.324V132.584H384.757V130.386H380.19V128.188H375.623V125.99H380.19V123.792H384.757V121.594H389.324V119.396H393.892V117.198H398.335V115H403.817V117.198H408.384V119.396H412.951V121.594H417.518V123.792H422.085V125.99H425.614V123.792H430.181V121.716H435.663V123.914H440.23V126.112H444.797V128.31H440.23V130.264H435.663V132.584ZM416.603 125.99V123.792H412.036V121.594H407.469V119.396H402.902V117.198H399.373V119.396H394.806V121.594H390.239V123.792H385.672V125.99H381.105V128.188H385.672V130.386H390.239V132.584H394.806V134.782H399.373V136.98H402.902V134.782H407.469V132.584H412.036V130.386H416.603V128.188H421.047V125.99H416.603ZM439.315 128.066V126.112H434.748V123.914H431.096V125.99H426.529V128.188H431.096V130.264H434.748V128.066H439.315Z" fill="white"/>
<path d="M434.034 128.31H431.786V126.112H434.034V128.31Z" fill="white"/>
<path d="M435.663 139.667H430.181V137.469H435.663V139.667Z" fill="white"/>
<path d="M419.74 139.667H414.258V137.469H419.74V139.667Z" fill="white"/>
<path d="M388.388 139.667H382.906V137.469H388.388V139.667Z" fill="white"/>
<path d="M435.663 117.198H430.181V115H435.663V117.198Z" fill="white"/>
<path d="M419.74 117.198H414.258V115H419.74V117.198Z" fill="white"/>
<path d="M388.388 117.198H382.906V115H388.388V117.198Z" fill="white"/>
<path d="M407.52 130.508H402.928V132.706H399.349V130.508H394.756V128.31H390.188V126.112H394.756V124.036H400.237V126.234H395.67V128.31H400.237V130.508H402.038V128.31H406.482V126.112H402.038V123.914H407.52V126.112H411.964V128.31H407.52V130.508Z" fill="white"/>
<path d="M402.866 123.731H399.287V121.533H402.866V123.731Z" fill="white"/>
<path d="M499.475 132.584H504.042V134.782H508.609V136.98H503.127V134.782H498.56V132.706H494.907V134.66H490.34V136.858H484.859V134.66H489.426V132.462H493.993V130.386H489.426V128.188H485.897V130.386H481.33V132.584H476.763V134.782H472.195V136.98H467.628V139.178H462.147V136.98H457.703V134.782H453.136V132.584H448.569V130.386H444.002V128.188H439.435V125.99H444.002V123.792H448.569V121.594H453.136V119.396H457.703V117.198H462.147V115H467.628V117.198H472.195V119.396H476.763V121.594H481.33V123.792H485.897V125.99H489.426V123.792H493.993V121.716H499.475V123.914H504.042V126.112H508.609V128.31H504.042V130.264H499.475V132.584ZM480.415 125.99V123.792H475.848V121.594H471.281V119.396H466.714V117.198H463.185V119.396H458.618V121.594H454.051V123.792H449.484V125.99H444.916V128.188H449.484V130.386H454.051V132.584H458.618V134.782H463.185V136.98H466.714V134.782H471.281V132.584H475.848V130.386H480.415V128.188H484.859V125.99H480.415ZM503.127 128.066V126.112H498.56V123.914H494.907V125.99H490.34V128.188H494.907V130.264H498.56V128.066H503.127Z" fill="white"/>
<path d="M497.845 128.31H495.597V126.112H497.845V128.31Z" fill="white"/>
<path d="M499.475 139.667H493.993V137.469H499.475V139.667Z" fill="white"/>
<path d="M483.551 139.667H478.07V137.469H483.551V139.667Z" fill="white"/>
<path d="M452.199 139.667H446.717V137.469H452.199V139.667Z" fill="white"/>
<path d="M499.475 117.198H493.993V115H499.475V117.198Z" fill="white"/>
<path d="M483.551 117.198H478.07V115H483.551V117.198Z" fill="white"/>
<path d="M452.199 117.198H446.717V115H452.199V117.198Z" fill="white"/>
<path d="M471.331 130.508H466.74V132.706H463.16V130.508H458.567V128.31H454V126.112H458.567V124.036H464.049V126.234H459.482V128.31H464.049V130.508H465.85V128.31H470.293V126.112H465.85V123.914H471.331V126.112H475.775V128.31H471.331V130.508Z" fill="white"/>
<path d="M466.678 123.731H463.098V121.533H466.678V123.731Z" fill="white"/>
<path d="M563.286 132.584H567.853V134.782H572.42V136.98H566.939V134.782H562.372V132.706H558.719V134.66H554.152V136.858H548.67V134.66H553.237V132.462H557.804V130.386H553.237V128.188H549.708V130.386H545.141V132.584H540.574V134.782H536.007V136.98H531.44V139.178H525.958V136.98H521.515V134.782H516.948V132.584H512.381V130.386H507.813V128.188H503.246V125.99H507.813V123.792H512.381V121.594H516.948V119.396H521.515V117.198H525.958V115H531.44V117.198H536.007V119.396H540.574V121.594H545.141V123.792H549.708V125.99H553.237V123.792H557.804V121.716H563.286V123.914H567.853V126.112H572.42V128.31H567.853V130.264H563.286V132.584ZM544.227 125.99V123.792H539.66V121.594H535.092V119.396H530.525V117.198H526.996V119.396H522.429V121.594H517.862V123.792H513.295V125.99H508.728V128.188H513.295V130.386H517.862V132.584H522.429V134.782H526.996V136.98H530.525V134.782H535.092V132.584H539.66V130.386H544.227V128.188H548.67V125.99H544.227ZM566.939 128.066V126.112H562.372V123.914H558.719V125.99H554.152V128.188H558.719V130.264H562.372V128.066H566.939Z" fill="white"/>
<path d="M561.657 128.31H559.409V126.112H561.657V128.31Z" fill="white"/>
<path d="M563.286 139.667H557.804V137.469H563.286V139.667Z" fill="white"/>
<path d="M547.363 139.667H541.881V137.469H547.363V139.667Z" fill="white"/>
<path d="M516.011 139.667H510.529V137.469H516.011V139.667Z" fill="white"/>
<path d="M563.286 117.198H557.804V115H563.286V117.198Z" fill="white"/>
<path d="M547.363 117.198H541.881V115H547.363V117.198Z" fill="white"/>
<path d="M516.011 117.198H510.529V115H516.011V117.198Z" fill="white"/>
<path d="M535.143 130.508H530.551V132.706H526.972V130.508H522.379V128.31H517.812V126.112H522.379V124.036H527.86V126.234H523.293V128.31H527.86V130.508H529.661V128.31H534.105V126.112H529.661V123.914H535.143V126.112H539.587V128.31H535.143V130.508Z" fill="white"/>
<path d="M530.49 123.731H526.91V121.533H530.49V123.731Z" fill="white"/>
<path d="M627.04 132.584H631.607V134.782H636.174V136.98H630.692V134.782H626.125V132.706H622.473V134.66H617.906V136.858H612.424V134.66H616.991V132.462H621.558V130.386H616.991V128.188H613.462V130.386H608.895V132.584H604.328V134.782H599.761V136.98H595.194V139.178H589.712V136.98H585.268V134.782H580.701V132.584H576.134V130.386H571.567V128.188H567V125.99H571.567V123.792H576.134V121.594H580.701V119.396H585.268V117.198H589.712V115H595.194V117.198H599.761V119.396H604.328V121.594H608.895V123.792H613.462V125.99H616.991V123.792H621.558V121.716H627.04V123.914H631.607V126.112H636.174V128.31H631.607V130.264H627.04V132.584ZM607.98 125.99V123.792H603.413V121.594H598.846V119.396H594.279V117.198H590.75V119.396H586.183V121.594H581.616V123.792H577.049V125.99H572.482V128.188H577.049V130.386H581.616V132.584H586.183V134.782H590.75V136.98H594.279V134.782H598.846V132.584H603.413V130.386H607.98V128.188H612.424V125.99H607.98ZM630.692 128.066V126.112H626.125V123.914H622.473V125.99H617.906V128.188H622.473V130.264H626.125V128.066H630.692Z" fill="white"/>
<path d="M625.41 128.31H623.163V126.112H625.41V128.31Z" fill="white"/>
<path d="M627.04 139.667H621.558V137.469H627.04V139.667Z" fill="white"/>
<path d="M611.117 139.667H605.635V137.469H611.117V139.667Z" fill="white"/>
<path d="M579.764 139.667H574.283V137.469H579.764V139.667Z" fill="white"/>
<path d="M627.04 117.198H621.558V115H627.04V117.198Z" fill="white"/>
<path d="M611.117 117.198H605.635V115H611.117V117.198Z" fill="white"/>
<path d="M579.764 117.198H574.283V115H579.764V117.198Z" fill="white"/>
<path d="M598.897 130.508H594.305V132.706H590.725V130.508H586.132V128.31H581.565V126.112H586.132V124.036H591.614V126.234H587.047V128.31H591.614V130.508H593.415V128.31H597.859V126.112H593.415V123.914H598.897V126.112H603.34V128.31H598.897V130.508Z" fill="white"/>
<path d="M594.243 123.731H590.664V121.533H594.243V123.731Z" fill="white"/>
<path d="M690.793 132.584H695.36V134.782H699.927V136.98H694.446V134.782H689.879V132.706H686.226V134.66H681.659V136.858H676.177V134.66H680.745V132.462H685.312V130.386H680.745V128.188H677.216V130.386H672.648V132.584H668.081V134.782H663.514V136.98H658.947V139.178H653.466V136.98H649.022V134.782H644.455V132.584H639.888V130.386H635.321V128.188H630.754V125.99H635.321V123.792H639.888V121.594H644.455V119.396H649.022V117.198H653.466V115H658.947V117.198H663.514V119.396H668.081V121.594H672.648V123.792H677.216V125.99H680.745V123.792H685.312V121.716H690.793V123.914H695.36V126.112H699.927V128.31H695.36V130.264H690.793V132.584ZM671.734 125.99V123.792H667.167V121.594H662.6V119.396H658.033V117.198H654.504V119.396H649.937V121.594H645.369V123.792H640.802V125.99H636.235V128.188H640.802V130.386H645.369V132.584H649.937V134.782H654.504V136.98H658.033V134.782H662.6V132.584H667.167V130.386H671.734V128.188H676.177V125.99H671.734ZM694.446 128.066V126.112H689.879V123.914H686.226V125.99H681.659V128.188H686.226V130.264H689.879V128.066H694.446Z" fill="white"/>
<path d="M689.164 128.31H686.916V126.112H689.164V128.31Z" fill="white"/>
<path d="M690.793 139.667H685.312V137.469H690.793V139.667Z" fill="white"/>
<path d="M674.87 139.667H669.389V137.469H674.87V139.667Z" fill="white"/>
<path d="M643.518 139.667H638.036V137.469H643.518V139.667Z" fill="white"/>
<path d="M690.793 117.198H685.312V115H690.793V117.198Z" fill="white"/>
<path d="M674.87 117.198H669.389V115H674.87V117.198Z" fill="white"/>
<path d="M643.518 117.198H638.036V115H643.518V117.198Z" fill="white"/>
<path d="M662.65 130.508H658.059V132.706H654.479V130.508H649.886V128.31H645.319V126.112H649.886V124.036H655.368V126.234H650.801V128.31H655.368V130.508H657.169V128.31H661.612V126.112H657.169V123.914H662.65V126.112H667.094V128.31H662.65V130.508Z" fill="white"/>
<path d="M657.997 123.731H654.417V121.533H657.997V123.731Z" fill="white"/>
<path d="M754.547 132.584H759.114V134.782H763.681V136.98H758.199V134.782H753.632V132.706H749.98V134.66H745.413V136.858H739.931V134.66H744.498V132.462H749.065V130.386H744.498V128.188H740.969V130.386H736.402V132.584H731.835V134.782H727.268V136.98H722.701V139.178H717.219V136.98H712.776V134.782H708.208V132.584H703.641V130.386H699.074V128.188H694.507V125.99H699.074V123.792H703.641V121.594H708.208V119.396H712.776V117.198H717.219V115H722.701V117.198H727.268V119.396H731.835V121.594H736.402V123.792H740.969V125.99H744.498V123.792H749.065V121.716H754.547V123.914H759.114V126.112H763.681V128.31H759.114V130.264H754.547V132.584ZM735.487 125.99V123.792H730.92V121.594H726.353V119.396H721.786V117.198H718.257V119.396H713.69V121.594H709.123V123.792H704.556V125.99H699.989V128.188H704.556V130.386H709.123V132.584H713.69V134.782H718.257V136.98H721.786V134.782H726.353V132.584H730.92V130.386H735.487V128.188H739.931V125.99H735.487ZM758.199 128.066V126.112H753.632V123.914H749.98V125.99H745.413V128.188H749.98V130.264H753.632V128.066H758.199Z" fill="white"/>
<path d="M752.918 128.31H750.67V126.112H752.918V128.31Z" fill="white"/>
<path d="M754.547 139.667H749.065V137.469H754.547V139.667Z" fill="white"/>
<path d="M738.624 139.667H733.142V137.469H738.624V139.667Z" fill="white"/>
<path d="M707.272 139.667H701.79V137.469H707.272V139.667Z" fill="white"/>
<path d="M754.547 117.198H749.065V115H754.547V117.198Z" fill="white"/>
<path d="M738.624 117.198H733.142V115H738.624V117.198Z" fill="white"/>
<path d="M707.272 117.198H701.79V115H707.272V117.198Z" fill="white"/>
<path d="M726.404 130.508H721.812V132.706H718.232V130.508H713.64V128.31H709.072V126.112H713.64V124.036H719.121V126.234H714.554V128.31H719.121V130.508H720.922V128.31H725.366V126.112H720.922V123.914H726.404V126.112H730.848V128.31H726.404V130.508Z" fill="white"/>
<path d="M721.75 123.731H718.171V121.533H721.75V123.731Z" fill="white"/>
<path d="M818.301 132.584H822.868V134.782H827.435V136.98H821.953V134.782H817.386V132.706H813.733V134.66H809.166V136.858H803.685V134.66H808.252V132.462H812.819V130.386H808.252V128.188H804.723V130.386H800.156V132.584H795.589V134.782H791.022V136.98H786.454V139.178H780.973V136.98H776.529V134.782H771.962V132.584H767.395V130.386H762.828V128.188H758.261V125.99H762.828V123.792H767.395V121.594H771.962V119.396H776.529V117.198H780.973V115H786.454V117.198H791.022V119.396H795.589V121.594H800.156V123.792H804.723V125.99H808.252V123.792H812.819V121.716H818.301V123.914H822.868V126.112H827.435V128.31H822.868V130.264H818.301V132.584ZM799.241 125.99V123.792H794.674V121.594H790.107V119.396H785.54V117.198H782.011V119.396H777.444V121.594H772.877V123.792H768.31V125.99H763.742V128.188H768.31V130.386H772.877V132.584H777.444V134.782H782.011V136.98H785.54V134.782H790.107V132.584H794.674V130.386H799.241V128.188H803.685V125.99H799.241ZM821.953 128.066V126.112H817.386V123.914H813.734V125.99H809.166V128.188H813.734V130.264H817.386V128.066H821.953Z" fill="white"/>
<path d="M816.671 128.31H814.423V126.112H816.671V128.31Z" fill="white"/>
<path d="M818.301 139.667H812.819V137.469H818.301V139.667Z" fill="white"/>
<path d="M802.378 139.667H796.896V137.469H802.378V139.667Z" fill="white"/>
<path d="M771.025 139.667H765.543V137.469H771.025V139.667Z" fill="white"/>
<path d="M818.301 117.198H812.819V115H818.301V117.198Z" fill="white"/>
<path d="M802.378 117.198H796.896V115H802.378V117.198Z" fill="white"/>
<path d="M771.025 117.198H765.543V115H771.025V117.198Z" fill="white"/>
<path d="M790.157 130.508H785.566V132.706H781.986V130.508H777.393V128.31H772.826V126.112H777.393V124.036H782.875V126.234H778.308V128.31H782.875V130.508H784.676V128.31H789.119V126.112H784.676V123.914H790.157V126.112H794.601V128.31H790.157V130.508Z" fill="white"/>
<path d="M785.504 123.731H781.924V121.533H785.504V123.731Z" fill="white"/>
<path d="M813.134 132.584H808.567V134.782H804V136.98H809.482V134.782H814.049V132.706H817.701V134.66H822.268V136.858H827.75V134.66H823.183V132.462H818.616V130.386H823.183V128.188H826.712V130.386H831.279V132.584H835.846V134.782H840.413V136.98H844.98V139.178H850.462V136.98H854.906V134.782H859.473V132.584H864.04V130.386H868.607V128.188H873.174V125.99H868.607V123.792H864.04V121.594H859.473V119.396H854.906V117.198H850.462V115H844.98V117.198H840.413V119.396H835.846V121.594H831.279V123.792H826.712V125.99H823.183V123.792H818.616V121.716H813.134V123.914H808.567V126.112H804V128.31H808.567V130.264H813.134V132.584ZM832.194 125.99V123.792H836.761V121.594H841.328V119.396H845.895V117.198H849.424V119.396H853.991V121.594H858.558V123.792H863.125V125.99H867.692V128.188H863.125V130.386H858.558V132.584H853.991V134.782H849.424V136.98H845.895V134.782H841.328V132.584H836.761V130.386H832.194V128.188H827.75V125.99H832.194ZM809.482 128.066V126.112H814.049V123.914H817.701V125.99H822.268V128.188H817.701V130.264H814.049V128.066H809.482Z" fill="white"/>
<path d="M814.763 128.31H817.011V126.112H814.763V128.31Z" fill="white"/>
<path d="M813.134 139.667H818.616V137.469H813.134V139.667Z" fill="white"/>
<path d="M829.057 139.667H834.539V137.469H829.057V139.667Z" fill="white"/>
<path d="M860.41 139.667H865.891V137.469H860.41V139.667Z" fill="white"/>
<path d="M813.134 117.198H818.616V115H813.134V117.198Z" fill="white"/>
<path d="M829.057 117.198H834.539V115H829.057V117.198Z" fill="white"/>
<path d="M860.41 117.198H865.891V115H860.41V117.198Z" fill="white"/>
<path d="M841.277 130.508H845.869V132.706H849.449V130.508H854.042V128.31H858.609V126.112H854.042V124.036H848.56V126.234H853.127V128.31H848.56V130.508H846.759V128.31H842.315V126.112H846.759V123.914H841.277V126.112H836.834V128.31H841.277V130.508Z" fill="white"/>
<path d="M845.931 123.731H849.51V121.533H845.931V123.731Z" fill="white"/>
<path d="M0 150.394V0.196605H62.6655C62.6655 0.196605 82.6979 -0.245756 89.3754 0.196605C101.703 1.02989 120.133 4.36303 122.249 37.2315C124.304 69.1226 108.894 73.2376 108.894 73.2376C108.894 73.2376 129.44 78.3813 129.44 109.244C129.44 140.106 111.298 148.336 98.6211 150.394C88.7385 152.009 58.5563 150.394 58.5563 150.394V130.847C58.5563 130.847 83.2116 131.465 91.43 130.847C98.6828 130.312 111.976 127.761 110.949 109.244C109.921 90.7263 99.3608 89.0803 92.4573 88.6688C84.2389 88.1956 59.5836 88.6688 59.5836 88.6688V63.9789H82.1843C82.1843 63.9789 103.758 65.0076 102.73 43.4039C101.703 21.8003 87.3208 21.8003 87.3208 21.8003L19.5188 20.7715V150.394H0Z" fill="white"/>
</svg>
